<?xml version="1.0" encoding="UTF-8"?>
<svg id="Livello_2" data-name="Livello 2" xmlns="http://www.w3.org/2000/svg" viewBox="0 0 551.3 104.29">
  <defs>
    <style>
      .cls-1 {
        fill:rgb(0, 0, 0);
        stroke-width: 0px;
      }
    </style>
  </defs>
  <g id="Livello_1-2" data-name="Livello 1">
    <g>
      <path class="cls-1" d="M30.08,34.18c7.41,0,13.38,4.53,14.6,11.5h13.82c-1.55-14.27-13.27-23.44-28.2-23.44C12.94,22.23,0,34.51,0,52.42s12.61,30.19,29.97,30.19c15.04,0,26.87-9.29,28.53-23.55h-13.49c-1.22,6.75-7.3,11.61-14.93,11.61-9.18,0-16.37-6.97-16.37-18.25s7.19-18.25,16.37-18.25Z"/>
      <path class="cls-1" d="M95.1,22.23c-17.03,0-29.97,12.5-29.97,30.19s12.94,30.19,29.97,30.19,29.97-12.5,29.97-30.19-12.94-30.19-29.97-30.19ZM95.1,70.67c-9.51,0-16.26-7.19-16.26-18.25s6.75-18.25,16.26-18.25,16.26,7.19,16.26,18.25-6.75,18.25-16.26,18.25Z"/>
      <path class="cls-1" d="M178.04,31.3c-3.76-5.53-10.84-9.07-18.91-9.07-15.15,0-27.2,12.16-27.2,30.19s12.05,30.19,27.2,30.19c8.18,0,15.26-3.54,19.02-9.29v8.4h13.38V1h-13.49v30.3ZM162.01,70.67c-9.62,0-16.37-7.19-16.37-18.25s6.75-18.25,16.37-18.25,16.26,7.19,16.26,18.25-6.75,18.25-16.26,18.25Z"/>
      <path class="cls-1" d="M232.12,22.23c-17.14,0-30.41,12.39-30.41,30.63s12.5,29.75,30.3,29.75c13.82,0,24.66-7.19,27.87-19.13h-13.05c-2.32,4.87-7.74,7.85-14.49,7.85-9.07,0-16.15-5.31-17.36-15.81h45.45c.11-1.44.22-2.99.22-4.64,0-17.47-12.39-28.64-28.53-28.64ZM215.64,45.9c2.21-8.07,8.52-12.5,16.48-12.5s13.6,4.09,15.04,12.5h-31.52Z"/>
      <path class="cls-1" d="M284.32,33.18v-10.06h-13.27v58.61h13.49v-28.09c0-12.28,5.97-18.25,17.14-18.25h4.87v-12.28h-4.64c-7.52,0-14.15,3.54-17.58,10.06Z"/>
      <path class="cls-1" d="M345.73,22.23c-8.29,0-15.37,3.54-19.13,9.29v-8.4h-13.27v81.17h13.49v-30.63c3.87,5.53,10.84,8.96,18.91,8.96,15.04,0,27.2-12.16,27.2-30.19s-12.16-30.19-27.2-30.19ZM342.85,70.67c-9.51,0-16.37-7.19-16.37-18.25s6.86-18.25,16.37-18.25,16.37,7.19,16.37,18.25-6.86,18.25-16.37,18.25Z"/>
      <path class="cls-1" d="M396.49,33.18v-10.06h-13.27v58.61h13.49v-28.09c0-12.28,5.97-18.25,17.14-18.25h4.87v-12.28h-4.64c-7.52,0-14.16,3.54-17.58,10.06Z"/>
      <path class="cls-1" d="M452.77,22.23c-17.14,0-30.41,12.39-30.41,30.63s12.5,29.75,30.3,29.75c13.82,0,24.66-7.19,27.87-19.13h-13.05c-2.32,4.87-7.74,7.85-14.49,7.85-9.07,0-16.15-5.31-17.36-15.81h45.45c.11-1.44.22-2.99.22-4.64,0-17.47-12.39-28.64-28.53-28.64ZM436.3,45.9c2.21-8.07,8.51-12.5,16.48-12.5s13.6,4.09,15.04,12.5h-31.52Z"/>
      <path class="cls-1" d="M524.1,22.23c-8.29,0-15.37,3.54-19.13,9.29v-8.4h-13.27v81.17h13.49v-30.63c3.87,5.53,10.84,8.96,18.91,8.96,15.04,0,27.2-12.16,27.2-30.19s-12.16-30.19-27.2-30.19ZM521.23,70.67c-9.51,0-16.37-7.19-16.37-18.25s6.86-18.25,16.37-18.25,16.37,7.19,16.37,18.25-6.86,18.25-16.37,18.25Z"/>
      <path class="cls-1" d="M.77,8.72c2.17,3.31,4.35,6.62,6.52,9.93,13.74-9.02,31.52-9.02,45.26,0,2.17-3.31,4.35-6.62,6.52-9.93C41.37-2.91,18.46-2.91.77,8.72Z"/>
    </g>
  </g>
</svg>