<svg xmlns="http://www.w3.org/2000/svg" width="216" height="50" fill="none">
  <path fill="#000000" d="M93.251 11.672a1.5 1.5 0 0 1 1.424-1.03h5.136a1.5 1.5 0 0 1 1.41 2.014l-9.53 26.162a1.5 1.5 0 0 1-1.409.986H84.02a1.5 1.5 0 0 1-1.41-.987l-9.519-26.161a1.5 1.5 0 0 1 1.41-2.013h5.184a1.5 1.5 0 0 1 1.424 1.03L87.18 30.04l6.071-18.369Zm18.177 28.132a1.5 1.5 0 0 1-1.5-1.5V12.143a1.5 1.5 0 0 1 1.5-1.5h4.487a1.5 1.5 0 0 1 1.5 1.5v26.161a1.5 1.5 0 0 1-1.5 1.5h-4.487Zm33.779-11.561 6.466 9.199c.699.994-.012 2.362-1.227 2.362h-4.714a1.5 1.5 0 0 1-1.263-.69l-6.406-10.001h-1.715v9.191a1.5 1.5 0 0 1-1.5 1.5h-4.488a1.5 1.5 0 0 1-1.5-1.5V12.143a1.5 1.5 0 0 1 1.5-1.5h11.571c1.756 0 3.315.417 4.672 1.245a8.77 8.77 0 0 1 3.182 3.325c.763 1.396 1.147 2.935 1.147 4.618 0 1.974-.532 3.724-1.596 5.252-1.059 1.521-2.434 2.573-4.129 3.16Zm-4.506-5.11c.881 0 1.608-.283 2.176-.847.574-.57.864-1.292.864-2.162 0-.875-.29-1.597-.864-2.161-.568-.57-1.295-.858-2.176-.858h-4.353v6.027h4.353Zm28.233 10.209h7.844a1.5 1.5 0 0 1 1.5 1.5v3.462a1.5 1.5 0 0 1-1.5 1.5h-13.832a1.5 1.5 0 0 1-1.5-1.5V12.143a1.5 1.5 0 0 1 1.5-1.5h4.488a1.5 1.5 0 0 1 1.5 1.5v21.2Zm31.959 6.85c-2.091 0-4.052-.388-5.879-1.163a14.918 14.918 0 0 1-4.791-3.231 15.377 15.377 0 0 1-3.229-4.758c-.781-1.801-1.171-3.74-1.171-5.816 0-2.074.39-4.01 1.171-5.805a15.24 15.24 0 0 1 3.229-4.758 14.964 14.964 0 0 1 4.791-3.23c1.827-.782 3.788-1.176 5.879-1.176 2.082 0 4.024.394 5.831 1.175a15.319 15.319 0 0 1 4.803 3.231 15.06 15.06 0 0 1 3.253 4.758c.786 1.795 1.182 3.73 1.182 5.805 0 2.076-.396 4.015-1.182 5.816a15.192 15.192 0 0 1-3.253 4.758 15.27 15.27 0 0 1-4.803 3.231c-1.807.775-3.749 1.163-5.831 1.163Zm0-7.284c1.467 0 2.785-.332 3.962-.999a7.158 7.158 0 0 0 2.756-2.75c.669-1.165 1.006-2.478 1.006-3.935 0-1.487-.337-2.808-1.006-3.96a7.15 7.15 0 0 0-2.756-2.714c-1.177-.664-2.495-.999-3.962-.999-1.476 0-2.801.335-3.975 1a7.421 7.421 0 0 0-2.779 2.713c-.686 1.152-1.029 2.473-1.029 3.96 0 1.457.343 2.77 1.029 3.936a7.427 7.427 0 0 0 2.779 2.749c1.174.667 2.499.999 3.975.999Z"/>
  <path fill="#000000" fill-rule="evenodd" d="m47.387 18.554 5.544-9.54c2.324-4-.562-9.014-5.188-9.014h-7.858l-10.78 18.554L18.32 0H.04l19.923 34.271L29.105 50l9.14-15.729-9.14-15.717h18.282Z" clip-rule="evenodd"/>
  <path fill="000000" fill-opacity=".5" fill-rule="evenodd" d="m47.387 18.554 5.544-9.54c2.324-4-.562-9.014-5.188-9.014h-7.858l-10.78 18.554L18.32 0H.04l19.923 34.271L29.105 50l9.14-15.729-9.14-15.717h18.282Z" clip-rule="evenodd"/>
  <defs>
    <linearGradient id="a" x1="29.103" x2="29.103" y1="0" y2="50" gradientUnits="userSpaceOnUse">
      <stop stop-color="#000000" stop-opacity="0"/>
      <stop offset="1" stop-color="#000000"/>
    </linearGradient>
  </defs>
</svg>